<svg width="41" height="21" viewBox="0 0 41 21" fill="none" xmlns="http://www.w3.org/2000/svg">
<path fill-rule="evenodd" clip-rule="evenodd" d="M22.1016 8.57524L22.1161 16.4591L23.306 16.9463C23.9604 17.2142 24.5039 17.4575 24.5137 17.487C24.5326 17.5438 23.2478 20.5753 23.172 20.6527C23.117 20.7089 20.469 19.62 20.0504 19.3691C19.4235 18.9932 18.9442 18.3254 18.6962 17.4821C18.6028 17.1645 18.5947 16.5779 18.5783 8.91628L18.5608 0.691406H20.324H22.0873L22.1016 8.57524ZM10.0416 4.28069C10.6952 4.37064 11.4433 4.5819 12.0937 4.86021C13.2482 5.3541 13.9001 5.78742 14.7036 6.59507C15.5393 7.43495 16.1692 8.41847 16.6878 9.69302L16.911 10.2415L16.5872 10.3852C16.4092 10.4643 13.502 11.7314 10.1268 13.2009C6.75162 14.6705 3.55759 16.0623 3.02898 16.2939C2.50038 16.5255 2.05103 16.715 2.03046 16.715C1.9758 16.715 1.50038 15.7851 1.31878 15.3229C0.984384 14.4718 0.82841 13.6915 0.795112 12.703C0.750394 11.375 0.915232 10.4348 1.40168 9.243C2.84056 5.71787 6.25109 3.75901 10.0416 4.28069ZM34.5883 4.35632C35.2164 4.49348 36.1064 4.8014 36.6171 5.05817C38.1905 5.8493 39.545 7.2042 40.3368 8.779C40.6046 9.31158 41.024 10.532 40.9985 10.7048C40.9821 10.8158 40.8379 10.8547 39.2193 11.1844C38.2505 11.3818 37.43 11.5434 37.3961 11.5437C37.3622 11.544 37.2912 11.3887 37.2383 11.1987C37.0489 10.5173 36.5492 9.69581 36.0302 9.2122C34.8438 8.10697 33.1836 7.70985 31.6543 8.1655C31.5401 8.19953 31.4978 8.09623 30.9346 6.40768L30.3363 4.61366L30.6084 4.53286C30.8676 4.45587 31.5817 4.30478 31.9462 4.24984C32.334 4.19137 34.1723 4.26546 34.5883 4.35632ZM28.7368 7.65962L29.9946 9.05935L29.7726 9.29323C29.2238 9.87161 28.8695 10.4822 28.648 11.2317C28.5244 11.6499 28.4962 11.8623 28.4932 12.3966C28.4865 13.6321 28.8831 14.6479 29.7235 15.5472L29.9863 15.8284L29.8243 16.0018C29.7353 16.0972 29.2077 16.6866 28.6518 17.3116C28.096 17.9366 27.6087 18.4831 27.5688 18.526C27.468 18.6343 27.2177 18.4359 26.7208 17.854C24.174 14.8711 24.0112 10.666 26.3214 7.53836C26.5792 7.18931 27.4066 6.25989 27.4596 6.25989C27.4703 6.25989 28.0451 6.88975 28.7368 7.65962ZM7.85356 7.78792C6.26876 8.2163 5.22063 9.11112 4.7393 10.4466C4.51542 11.0678 4.37121 12.3966 4.5277 12.3966C4.59776 12.3966 11.873 9.27243 11.9343 9.21601C11.9982 9.15726 11.1987 8.43233 10.8125 8.1988C10.1991 7.82781 9.81133 7.72167 8.99038 7.69991C8.39813 7.68422 8.17278 7.70167 7.85356 7.78792ZM39.0869 13.7032C40.0035 13.8905 40.8136 14.0579 40.8871 14.0751C41.0072 14.1031 41.0169 14.1279 40.9827 14.3169C40.9078 14.7306 40.5492 15.7129 40.2898 16.2152C38.5229 19.6362 34.645 21.3823 30.9156 20.4363C30.6139 20.3597 30.3583 20.2885 30.3479 20.278C30.3231 20.2532 31.465 16.8141 31.5173 16.7561C31.5391 16.7319 31.7341 16.7541 31.9505 16.8055C32.5195 16.9405 33.4728 16.9278 34.0416 16.7774C35.5746 16.3722 36.8328 15.1665 37.236 13.7163C37.2901 13.5218 37.3537 13.3625 37.3774 13.3625C37.4009 13.3625 38.1702 13.5158 39.0869 13.7032ZM14.2296 15.955C15.0045 16.4745 15.6741 16.933 15.7177 16.9738C15.7848 17.0366 15.7638 17.0943 15.5805 17.3503C14.4432 18.9389 12.633 20.0673 10.4736 20.5336C9.70786 20.699 8.26347 20.7119 7.54144 20.5598C6.55423 20.3519 5.08324 19.7515 4.53213 19.3316L4.39235 19.225L5.31524 17.8422C5.82288 17.0816 6.27251 16.4141 6.31439 16.3588C6.38564 16.2649 6.41041 16.2719 6.69611 16.4661C7.97339 17.334 9.64632 17.3175 11.2182 16.4213C11.6847 16.1553 12.4053 15.5218 12.6004 15.2062C12.667 15.0985 12.7438 15.0104 12.7712 15.0104C12.7985 15.0104 13.4548 15.4354 14.2296 15.955Z" fill="url(#paint0_linear_1708_218)"/>
<defs>
<linearGradient id="paint0_linear_1708_218" x1="20.894" y1="0.691406" x2="20.894" y2="20.6914" gradientUnits="userSpaceOnUse">
<stop stop-color="white"/>
<stop offset="1" stop-color="white" stop-opacity="0.75"/>
</linearGradient>
</defs>
</svg>
