<svg width="46" height="21" viewBox="0 0 46 21" fill="none" xmlns="http://www.w3.org/2000/svg">
<path fill-rule="evenodd" clip-rule="evenodd" d="M23.2476 0.714612L7.40575 0.726365L7.11539 0.779349C5.92605 0.996374 5.22798 1.29087 4.59921 1.84085C4.26005 2.1375 4.04797 2.41313 3.84823 2.81682C3.69743 3.12158 3.66312 3.21619 3.57439 3.57174C3.45723 4.04129 2.97272 6.38964 1.2501 14.8376C1.0534 15.8021 0.745038 17.3126 0.564832 18.1941C0.384601 19.0756 0.201166 19.9737 0.157148 20.1899C0.113153 20.406 0.0771484 20.6073 0.0771484 20.6371V20.6914L19.351 20.6853L38.6249 20.6792L38.9501 20.6261C39.9324 20.4657 40.6421 20.2122 41.2003 19.8226C41.4202 19.669 41.7632 19.3333 41.9265 19.1116C42.2014 18.7385 42.4121 18.2559 42.5188 17.755C42.6009 17.3697 43.9197 10.9521 44.1183 9.97121C44.1934 9.60071 44.4013 8.58678 44.5803 7.71804C44.7594 6.84929 45.0784 5.29704 45.2892 4.2686C45.5001 3.24016 45.7462 2.04491 45.8363 1.61249C45.9263 1.18006 46 0.795935 46 0.758839V0.691406L42.5447 0.697144C40.6443 0.70028 31.9606 0.708154 23.2476 0.714612ZM42.0555 6.65008C42.0622 6.65675 42.0322 6.83707 41.9888 7.05077C41.7922 8.01899 41.3397 10.4931 41.1922 11.4064C41.0877 12.0535 40.9594 13.128 40.9594 13.3561V13.56H40.4945H40.0297L40.0414 13.4729C40.0479 13.425 40.0689 13.2731 40.0881 13.1354C40.1074 12.9977 40.1231 12.873 40.1231 12.8584C40.1231 12.8437 40.0623 12.9148 39.9879 13.0163C39.8172 13.2494 39.6429 13.3987 39.423 13.5003C38.9152 13.7349 38.0616 13.7376 37.5606 13.5061C37.2296 13.3532 37.0402 13.1462 36.9168 12.8028C36.7445 12.3232 36.7614 11.5427 36.9587 10.8655C37.1005 10.3788 37.3126 9.91548 37.5133 9.65448C37.7995 9.28206 38.0488 9.06775 38.3992 8.89287C38.9527 8.61666 39.7914 8.55064 40.4712 8.72978C40.6056 8.76518 40.722 8.7872 40.7299 8.77875C40.7464 8.76114 41.0223 7.04729 41.0427 6.83535C41.0501 6.7587 41.0602 6.68293 41.0651 6.66695C41.0719 6.64493 41.1912 6.63791 41.5587 6.63791C41.8253 6.63791 42.0488 6.64339 42.0555 6.65008ZM12.4018 6.75521C12.5348 6.83744 12.5741 6.92896 12.5741 7.15663C12.5741 7.41514 12.5197 7.55962 12.3616 7.72076C12.2257 7.85929 12.1375 7.89225 11.9027 7.89225C11.6942 7.89225 11.5842 7.84133 11.5109 7.71093C11.4635 7.62661 11.4599 7.59816 11.4734 7.41237C11.4976 7.07765 11.6047 6.88353 11.8308 6.76469C11.9752 6.68883 12.286 6.68367 12.4018 6.75521ZM6.41845 6.80632C6.4184 6.8223 6.38699 6.99737 6.34864 7.1954C6.31027 7.39342 6.2578 7.68087 6.23201 7.83418C6.20623 7.98749 6.12616 8.42391 6.05408 8.80399C5.98203 9.18411 5.92921 9.50122 5.93671 9.50875C5.9604 9.53242 7.84482 9.54877 8.44544 9.53051C9.00738 9.51342 9.02081 9.51188 9.03098 9.46336C9.0367 9.43607 9.08875 9.12104 9.14666 8.76332C9.20457 8.4056 9.30299 7.81502 9.36538 7.45091L9.47883 6.7889L10.0509 6.78269C10.3655 6.77926 10.6229 6.78051 10.6229 6.78546C10.6229 6.79041 10.5973 6.91863 10.566 7.0704C10.5347 7.2222 10.4452 7.69655 10.3672 8.12454C10.2892 8.55252 10.1686 9.20891 10.0991 9.5832C9.97039 10.2764 9.47876 13.1835 9.44916 13.4264L9.4329 13.56H8.85442H8.27594L8.28711 13.5077C8.29324 13.479 8.36822 13.074 8.45371 12.6076C8.53919 12.1413 8.67368 11.4149 8.75256 10.9933C8.83145 10.5717 8.89196 10.2189 8.88701 10.2093C8.88206 10.1997 8.18988 10.1919 7.34882 10.1919H5.81964L5.80661 10.2441C5.77736 10.3616 5.61957 11.2681 5.44375 12.3289C5.34106 12.9485 5.25161 13.479 5.24501 13.5077L5.233 13.56H4.6639H4.0948L4.10635 13.5077C4.14282 13.3427 4.57547 11.0888 4.6626 10.61C4.71956 10.297 4.84079 9.57574 4.932 9.00722C5.21885 7.21904 5.28148 6.83619 5.29193 6.80632C5.29969 6.78418 5.43467 6.77728 5.86033 6.77728C6.29145 6.77728 6.41851 6.7839 6.41845 6.80632ZM16.0468 8.68711C16.3446 8.75459 16.5469 8.86211 16.7513 9.06167C16.9609 9.26629 17.061 9.45319 17.1365 9.78029C17.2352 10.2077 17.2299 10.4979 17.1115 11.1559C17.0207 11.6609 16.6853 12.46 16.4308 12.7776C15.9626 13.3622 15.4189 13.648 14.6806 13.6976C14.3795 13.7178 14.1092 13.6858 13.9025 13.6054C13.7858 13.56 13.7242 13.5151 13.6005 13.3853C13.5151 13.2957 13.4257 13.1859 13.4018 13.1414C13.3627 13.0685 13.3567 13.0652 13.3411 13.1071C13.3316 13.1326 13.3166 13.2058 13.3077 13.2697C13.2988 13.3335 13.2199 13.851 13.1323 14.4195C13.0447 14.988 12.9661 15.5132 12.9577 15.5867L12.9424 15.7203H12.4359H11.9295L11.9607 15.5751C12.1688 14.6075 12.7596 11.3119 13.0383 9.56471C13.1024 9.16227 13.1603 8.8095 13.1669 8.78074C13.1788 8.72894 13.1826 8.72848 13.5927 8.72848C13.8203 8.72848 14.0121 8.73403 14.0189 8.74081C14.0257 8.7476 14.0116 8.84855 13.9877 8.96518C13.9638 9.08178 13.947 9.17997 13.9504 9.18339C13.9538 9.1868 14.0192 9.14239 14.0958 9.08471C14.2714 8.95233 14.6304 8.77203 14.8273 8.71724C15.214 8.60964 15.6565 8.5987 16.0468 8.68711ZM20.5696 8.63642C21.0813 8.68797 21.3876 8.7974 21.6234 9.01287C21.9568 9.31765 22.0415 9.69107 21.9345 10.3853C21.9086 10.5536 21.8743 10.7488 21.8584 10.819L21.8294 10.9468H20.4712C18.9096 10.9468 18.6136 10.9517 18.5717 10.9783C18.4774 11.0381 18.4375 11.9865 18.5182 12.2518C18.6218 12.5926 18.7934 12.7781 19.1303 12.9136C19.3184 12.9893 19.3296 12.9909 19.7313 12.9981C20.0925 13.0045 20.1757 12.9985 20.4402 12.9469C20.7197 12.8924 21.1419 12.7628 21.291 12.6857C21.3267 12.6673 21.3643 12.6574 21.3747 12.6639C21.3851 12.6703 21.3643 12.8197 21.3285 12.9958C21.2927 13.172 21.263 13.3437 21.2625 13.3775C21.2616 13.4344 21.2495 13.4416 21.0932 13.4774C20.4816 13.6174 19.8559 13.6857 19.3256 13.6704C18.6776 13.6518 18.3112 13.5431 17.9828 13.272C17.7304 13.0636 17.6179 12.8705 17.5084 12.4574C17.4506 12.2394 17.4477 12.2033 17.4586 11.8418C17.4759 11.2718 17.6156 10.6527 17.848 10.117C18.1064 9.5212 18.4374 9.16292 18.9712 8.90137C19.3132 8.73377 19.7182 8.64453 20.2676 8.61566C20.3023 8.61382 20.4382 8.62316 20.5696 8.63642ZM25.3654 8.6886L25.5472 8.74051L25.5458 8.8216C25.5438 8.9351 25.461 9.40912 25.4386 9.43549C25.4273 9.44875 25.3716 9.44197 25.2958 9.41806C25.2092 9.39075 25.0903 9.37888 24.9035 9.37888C24.6463 9.37888 24.6283 9.38218 24.4557 9.46081C24.0549 9.64347 23.7195 10.1119 23.5746 10.6913C23.4496 11.1915 23.2198 12.4963 23.1533 13.0838C23.133 13.2627 23.1115 13.443 23.1055 13.4845L23.0945 13.56H22.5983C22.1379 13.56 22.1028 13.5571 22.1109 13.5194C22.1907 13.1502 22.5174 11.4329 22.607 10.912C22.7032 10.3524 22.9304 8.92072 22.9388 8.82139L22.9456 8.74009L23.3812 8.73377C23.7359 8.72862 23.8167 8.73331 23.8167 8.75902C23.8167 8.79275 23.7074 9.39779 23.6838 9.49502C23.6757 9.52842 23.7463 9.45151 23.8501 9.31388C24.1397 8.92985 24.425 8.73099 24.8039 8.64906C24.9928 8.60822 25.1137 8.61675 25.3654 8.6886ZM28.625 8.65991C29.1748 8.70123 29.1825 8.70279 29.1822 8.77213C29.1819 8.85791 29.0764 9.46947 29.059 9.48687C29.0511 9.49479 28.9842 9.47941 28.9103 9.45272C28.719 9.38359 28.2132 9.29203 27.935 9.27616C27.6949 9.26246 27.4041 9.30227 27.1384 9.3852C26.9775 9.43542 26.7796 9.57449 26.6535 9.72603C26.5075 9.90147 26.3024 10.32 26.209 10.6332C26.0561 11.146 26.0004 11.8507 26.0822 12.2393C26.156 12.59 26.3667 12.84 26.6779 12.9459C27.0704 13.0793 27.9329 12.9679 28.4218 12.7205C28.5079 12.6769 28.5089 12.6769 28.5089 12.7223C28.5089 12.7475 28.4814 12.9104 28.4478 13.0842C28.3982 13.341 28.3775 13.4063 28.3374 13.4321C28.2591 13.4828 27.8534 13.5766 27.477 13.6311C27.1916 13.6724 27.0604 13.6793 26.7337 13.6701C26.1074 13.6525 25.7746 13.5404 25.4982 13.2541C25.3154 13.0649 25.2355 12.9417 25.1463 12.7122C24.9667 12.25 24.9865 11.4637 25.1957 10.7494C25.3232 10.314 25.3832 10.159 25.5264 9.89469C25.6995 9.57548 25.7948 9.4487 26.0032 9.26071C26.4554 8.85277 26.7783 8.71928 27.4868 8.64736C27.8008 8.61552 28.0746 8.61852 28.625 8.65991ZM32.2047 8.63673C32.9524 8.69531 33.3502 8.87133 33.5047 9.21203C33.5676 9.35084 33.5727 9.38266 33.5727 9.6369C33.5727 9.87604 33.5516 10.0284 33.4103 10.8094C33.1815 12.0748 33.0829 12.7426 33.0608 13.1767C33.0504 13.3812 33.0411 13.551 33.0402 13.5542C33.0392 13.5574 32.8442 13.56 32.6067 13.56H32.175L32.1901 13.38C32.1984 13.281 32.2156 13.1179 32.2284 13.0175C32.2411 12.9172 32.2483 12.8321 32.2443 12.8286C32.2403 12.825 32.1688 12.9016 32.0855 12.9989C31.799 13.333 31.4793 13.5319 31.0719 13.6294C30.7783 13.6997 30.2292 13.6899 29.9125 13.6087C29.4798 13.4978 29.1969 13.212 29.1104 12.7981C28.9839 12.1927 29.1536 11.5297 29.5444 11.1024C29.7903 10.8335 30.068 10.6783 30.5673 10.5304L30.8475 10.4474H31.6972H32.5469L32.5736 10.3371C32.5884 10.2764 32.6061 10.105 32.6131 9.9562L32.6259 9.68568L32.5521 9.57839C32.4018 9.35999 32.0302 9.25289 31.5054 9.27667C31.1991 9.29054 30.7097 9.36603 30.3027 9.46222C30.1687 9.49388 30.0541 9.51493 30.0482 9.509C30.0422 9.50306 30.0785 9.32761 30.1288 9.11914L30.2202 8.74009L30.3924 8.7351C30.4871 8.73233 30.7318 8.71333 30.9363 8.69287C31.1407 8.67238 31.4281 8.64739 31.575 8.63731C31.722 8.62723 31.8537 8.61747 31.8679 8.61566C31.882 8.61382 32.0336 8.6233 32.2047 8.63673ZM37.1512 8.68507C37.2335 8.71229 37.3094 8.74221 37.3198 8.75157C37.3301 8.76091 37.3171 8.88028 37.2907 9.01681C37.2644 9.15338 37.2428 9.30148 37.2428 9.34594C37.2428 9.44861 37.2046 9.46366 37.0649 9.41604C36.988 9.38987 36.8709 9.37888 36.6688 9.37888C36.4055 9.37888 36.3718 9.38389 36.2606 9.43971C35.7825 9.67983 35.5065 10.0678 35.329 10.7499C35.226 11.1453 35.186 11.3587 35.0261 12.3655C34.9461 12.8695 34.8967 13.2526 34.8967 13.3701V13.56H34.3857C34.1046 13.56 33.8747 13.5562 33.8747 13.5516C33.8747 13.547 33.9473 13.1733 34.036 12.7212C34.3031 11.3602 34.4687 10.4149 34.6582 9.16982L34.7236 8.74009L35.1395 8.73373C35.3682 8.73024 35.5632 8.73547 35.5729 8.74534C35.5825 8.75524 35.5611 8.92534 35.5251 9.12336C35.4892 9.32139 35.4628 9.48682 35.4666 9.491C35.4703 9.49518 35.5151 9.43769 35.5663 9.36324C35.6755 9.2042 35.9848 8.89765 36.1131 8.82128C36.1625 8.79189 36.2774 8.73912 36.3686 8.70402C36.5913 8.61826 36.9248 8.6102 37.1512 8.68507ZM12.2721 8.73549C12.2721 8.73937 12.2149 9.03119 12.145 9.38401C11.8378 10.9345 11.4359 13.289 11.4359 13.538C11.4359 13.5512 11.2334 13.56 10.9295 13.56H10.423L10.5007 13.1826C10.7417 12.0109 11.019 10.4595 11.191 9.32081C11.2238 9.10362 11.2566 8.88706 11.2638 8.83958L11.2771 8.75324L11.5249 8.74578C11.9663 8.73252 12.2721 8.72832 12.2721 8.73549ZM19.8911 9.26524C19.4217 9.3064 19.0544 9.53888 18.8682 9.91283C18.7903 10.0692 18.6832 10.3386 18.6832 10.3782C18.6832 10.3927 19.1034 10.4009 19.8432 10.4009H21.0032L21.0214 10.2906C21.0562 10.0798 21.0425 9.74668 20.9954 9.65762C20.9092 9.49453 20.8204 9.40912 20.6734 9.34784C20.5505 9.29663 20.2253 9.23263 20.1391 9.24271C20.1241 9.24445 20.0125 9.25461 19.8911 9.26524ZM14.9086 9.2871C14.5869 9.31681 14.2982 9.4471 14.0291 9.68396L13.9394 9.76289L13.7549 10.7613C13.5404 11.9217 13.512 12.1743 13.5725 12.3844C13.6628 12.6984 13.7485 12.8205 13.9507 12.9239C14.1447 13.023 14.3249 13.0567 14.5699 13.0396C15.3534 12.9848 15.7937 12.4792 16.0812 11.3044C16.1402 11.0629 16.1478 10.9876 16.1534 10.5843C16.1602 10.099 16.142 9.98289 16.0234 9.75153C15.9527 9.61358 15.7743 9.44715 15.6287 9.38322C15.5115 9.33182 15.206 9.25967 15.1335 9.26634C15.112 9.26831 15.0108 9.27765 14.9086 9.2871ZM39.0886 9.3527C38.8477 9.44262 38.7341 9.51839 38.5507 9.71137C38.104 10.1817 37.8235 11.0212 37.8235 11.8882C37.8235 12.5293 37.9972 12.8319 38.4456 12.9717C38.6163 13.0249 38.6662 13.0308 38.8532 13.0193C39.1313 13.0022 39.3875 12.9124 39.5975 12.7582C40.0199 12.4481 40.14 12.117 40.4515 10.4057C40.595 9.61769 40.6167 9.46647 40.5888 9.44926C40.5706 9.43799 40.4453 9.3966 40.3104 9.35725C40.0751 9.28861 40.0485 9.28582 39.6586 9.28868C39.2807 9.29147 39.2405 9.296 39.0886 9.3527ZM30.989 11.0524C30.7531 11.1104 30.5993 11.1907 30.4189 11.3503C30.262 11.489 30.203 11.5841 30.0996 11.8643C30.0428 12.0184 30.0359 12.0666 30.0402 12.2806C30.044 12.4727 30.055 12.5421 30.093 12.6167C30.1761 12.7796 30.2356 12.8428 30.3672 12.9083C30.5691 13.0088 30.6926 13.0337 30.9194 13.0193C31.403 12.9888 31.8334 12.7254 32.0477 12.3289C32.2262 11.9987 32.4823 11.0727 32.4081 11.0257C32.3907 11.0146 32.1047 11.0062 31.7725 11.0069C31.2607 11.008 31.1412 11.015 30.989 11.0524Z" fill="url(#paint0_linear_1706_229)"/>
<defs>
<linearGradient id="paint0_linear_1706_229" x1="23.0386" y1="0.691406" x2="23.0386" y2="20.6914" gradientUnits="userSpaceOnUse">
<stop stop-color="white"/>
<stop offset="1" stop-color="white" stop-opacity="0.75"/>
</linearGradient>
</defs>
</svg>