<svg width="28" height="21" viewBox="0 0 28 21" fill="none" xmlns="http://www.w3.org/2000/svg">
<path fill-rule="evenodd" clip-rule="evenodd" d="M6.70354 0.69659C5.32168 0.808704 4.45964 1.43082 4.21307 2.49397C4.18917 2.59701 4.17979 2.77068 4.17244 3.24542L4.16289 3.86285L3.7676 3.863C3.55017 3.86308 3.30103 3.87133 3.21394 3.88134C2.05346 4.01478 0.905078 5.1274 0.730168 6.28775C0.705605 6.45069 0.701757 7.16996 0.701661 11.6092C0.701584 14.946 0.708247 16.7784 0.720672 16.8454C0.786225 17.1989 1.09226 17.5127 1.44436 17.5875C1.57952 17.6162 4.06641 17.6172 4.24339 17.5887C4.60543 17.5302 4.92662 17.233 5.00757 16.8815C5.02103 16.8231 5.02756 14.858 5.02788 10.7694L5.02834 4.74352H6.16537C7.41126 4.74352 7.46507 4.74739 7.77143 4.8592C8.49709 5.12405 9.01085 5.77234 9.10547 6.54267C9.11881 6.65122 9.12555 8.37403 9.12585 11.7501C9.12618 15.1619 9.13275 16.8233 9.14617 16.8815C9.22683 17.2317 9.54965 17.5304 9.91035 17.5887C9.98825 17.6012 10.5073 17.6087 11.2984 17.6086C12.6699 17.6083 12.7203 17.6051 12.9311 17.502C13.069 17.4345 13.2361 17.2753 13.3224 17.1293C13.4642 16.8894 13.4541 17.3713 13.4473 11.1667C13.4417 5.9597 13.4391 5.58296 13.4078 5.40403C13.2286 4.38141 12.7715 3.52287 11.9951 2.75059C11.2385 1.998 10.2271 1.39613 9.10625 1.03159C8.66461 0.887946 8.24914 0.794479 7.77567 0.732219C7.55199 0.702793 6.89579 0.681006 6.70354 0.69659ZM7.8954 1.6123C8.37181 1.67921 8.80395 1.78689 9.22112 1.94267C10.9622 2.59278 12.2901 4.07498 12.5538 5.66249C12.5724 5.77397 12.5793 7.00672 12.5848 11.1763C12.5916 16.299 12.5904 16.5496 12.5578 16.6135C12.4878 16.7509 12.521 16.7475 11.2792 16.7474C10.2135 16.7474 10.1664 16.7459 10.1078 16.7102C10.0742 16.6897 10.0355 16.6531 10.0217 16.6289C10.0011 16.5929 9.99468 15.6523 9.98658 11.5113C9.97544 5.81617 9.98974 6.33867 9.83202 5.86441C9.68817 5.43194 9.46338 5.06518 9.14454 4.74278C8.70032 4.29359 8.19571 4.02956 7.54592 3.90629C7.42295 3.88297 7.15938 3.87554 6.20866 3.86863L5.02455 3.86001L5.03359 3.30144C5.04349 2.69029 5.05668 2.59659 5.16333 2.38012C5.38092 1.93848 5.84616 1.67582 6.57287 1.58441C6.77506 1.55896 7.64649 1.57734 7.8954 1.6123ZM16.0688 3.86338C15.7858 3.89744 15.4977 4.1012 15.3673 4.35941C15.2448 4.60208 15.2525 4.21569 15.2522 10.1253C15.2519 13.6881 15.2586 15.5998 15.2717 15.7617C15.3188 16.3414 15.4631 16.8485 15.7326 17.3814C15.9648 17.8405 16.2521 18.2392 16.6399 18.6405C17.5638 19.5968 18.9361 20.332 20.3606 20.634L20.6314 20.6914H21.6003C22.6451 20.6914 22.6119 20.6941 22.9577 20.5829C23.1481 20.5218 23.4538 20.3756 23.6182 20.2671C23.8019 20.1459 24.0658 19.8824 24.191 19.6952C24.3186 19.5044 24.4065 19.3038 24.4752 19.0463C24.5219 18.8713 24.5245 18.8343 24.5326 18.2265L24.541 17.5899H25.0195C25.4239 17.5899 25.5274 17.5839 25.6874 17.5513C26.3595 17.4143 27.0138 16.9702 27.4783 16.3358C27.6912 16.0451 27.8432 15.7293 27.9415 15.3733L27.9929 15.1872L27.9986 9.96057C28.0027 6.1406 27.9984 4.70303 27.9826 4.61908C27.9297 4.33757 27.7279 4.07829 27.4626 3.95099C27.2439 3.84608 27.1494 3.8405 25.7093 3.84797C24.4632 3.85444 24.4498 3.85492 24.322 3.89767C23.9658 4.01685 23.7195 4.32028 23.6744 4.69566C23.6655 4.76937 23.6578 7.50748 23.6574 10.7804L23.6565 16.731L22.5126 16.7229C21.2919 16.7142 21.267 16.7124 20.9762 16.6126C20.3819 16.4084 19.8856 15.9116 19.6958 15.3305C19.5812 14.9797 19.5907 15.4324 19.5794 9.74997L19.5691 4.56164L19.5241 4.45018C19.4233 4.20047 19.1922 3.98469 18.9323 3.89763C18.8038 3.85461 18.7974 3.8544 17.5014 3.85103C16.7854 3.84918 16.1407 3.85473 16.0688 3.86338ZM18.5793 4.75114C18.6078 4.76585 18.6483 4.79692 18.6693 4.82014C18.7073 4.86211 18.7076 4.89822 18.7173 9.93864C18.7283 15.6355 18.7146 15.1303 18.8702 15.6009C19.1608 16.4797 19.8401 17.1661 20.7065 17.4563C21.1298 17.5982 21.1015 17.5958 22.4582 17.604L23.6817 17.6114L23.67 18.1606C23.6602 18.6239 23.6523 18.7333 23.6196 18.8595C23.5138 19.2685 23.2069 19.5809 22.7506 19.7439C22.4462 19.8527 22.2077 19.8902 21.7477 19.9015C20.8383 19.9238 20.0089 19.7659 19.1972 19.4159C17.7486 18.7912 16.5746 17.5124 16.2289 16.1827C16.1167 15.7513 16.1229 16.0996 16.1229 10.266C16.1229 5.08915 16.1243 4.88342 16.1579 4.83209C16.2279 4.72518 16.219 4.72595 17.421 4.72512C18.3322 4.72451 18.5367 4.72911 18.5793 4.75114ZM27.0069 4.75792C27.0453 4.77706 27.0883 4.82006 27.1074 4.85839C27.139 4.92167 27.1409 5.20092 27.1408 9.87441C27.1407 12.8342 27.1334 14.8863 27.1227 14.9797C27.0538 15.5786 26.5249 16.2636 25.8948 16.5699C25.6064 16.7101 25.5795 16.7148 25.0302 16.7237L24.5372 16.7317V10.8228C24.5372 4.29179 24.5263 4.8421 24.6578 4.7619C24.7167 4.72597 24.7619 4.72451 25.8295 4.72447C26.8484 4.72443 26.9454 4.72719 27.0069 4.75792ZM4.16681 10.6612C4.16681 16.1685 4.16459 16.5826 4.13465 16.6333C4.06383 16.7532 4.09936 16.7502 2.84911 16.7438L1.71327 16.7379L1.64758 16.6662L1.58188 16.5945L1.58684 11.4683L1.59179 6.34214L1.64172 6.20812C1.76607 5.87442 1.93964 5.60861 2.2043 5.34659C2.40651 5.14639 2.60379 5.00495 2.83657 4.89326C3.10627 4.76384 3.20944 4.74655 3.72169 4.74494L4.16681 4.74352V10.6612Z" fill="url(#paint0_linear_1708_255)"/>
<defs>
<linearGradient id="paint0_linear_1708_255" x1="14.3509" y1="0.691406" x2="14.3509" y2="20.6914" gradientUnits="userSpaceOnUse">
<stop stop-color="white"/>
<stop offset="1" stop-color="white" stop-opacity="0.75"/>
</linearGradient>
</defs>
</svg>
